<svg width="20" height="20" viewBox="0 0 20 20" fill="none" xmlns="http://www.w3.org/2000/svg">
<path d="M10.0002 0.25C8.07222 0.25 6.18722 0.821804 4.58322 1.8932C2.98022 2.9645 1.73023 4.4873 0.992229 6.2688C0.254229 8.0504 0.0612208 10.0108 0.437221 11.9021C0.814221 13.7934 1.74223 15.5307 3.10623 16.8943C4.46923 18.2579 6.20723 19.1865 8.09823 19.5627C9.98923 19.9389 11.9502 19.7458 13.7312 19.0078C15.5132 18.2699 17.0352 17.0202 18.1072 15.4168C19.1782 13.8134 19.7502 11.9284 19.7502 10C19.7472 7.415 18.7192 4.9366 16.8912 3.1087C15.0632 1.2808 12.5852 0.2527 10.0002 0.25ZM14.2812 8.2806L9.03123 13.5306C8.96123 13.6004 8.87823 13.6557 8.78723 13.6934C8.69623 13.7312 8.59922 13.7506 8.50022 13.7506C8.40122 13.7506 8.30422 13.7312 8.21322 13.6934C8.12222 13.6557 8.03922 13.6004 7.96922 13.5306L5.71922 11.2806C5.57922 11.1399 5.50022 10.949 5.50022 10.75C5.50022 10.551 5.57922 10.3601 5.71922 10.2194C5.86022 10.0786 6.05122 9.9996 6.25022 9.9996C6.44922 9.9996 6.64023 10.0786 6.78123 10.2194L8.50022 11.9397L13.2192 7.2194C13.2892 7.1497 13.3722 7.0944 13.4632 7.0567C13.5542 7.019 13.6512 6.9996 13.7502 6.9996C13.8492 6.9996 13.9462 7.019 14.0372 7.0567C14.1282 7.0944 14.2112 7.1497 14.2812 7.2194C14.3502 7.2891 14.4062 7.3718 14.4432 7.4628C14.4812 7.5539 14.5002 7.6515 14.5002 7.75C14.5002 7.8485 14.4812 7.9461 14.4432 8.0372C14.4062 8.1282 14.3502 8.2109 14.2812 8.2806Z" fill="#7551DC"/>
</svg>
